<svg width="100" height="100" viewBox="0 0 100 100" fill="none" xmlns="http://www.w3.org/2000/svg">
<g clip-path="url(#clip0)">
<circle cx="44.4444" cy="44.4444" r="44.4444" fill="#840032" fill-opacity="0.8"/>
<circle cx="55.5556" cy="44.4444" r="44.4444" fill="#E59500" fill-opacity="0.8"/>
<circle cx="55.5556" cy="55.5556" r="44.4444" fill="#002642" fill-opacity="0.8"/>
<circle cx="44.4444" cy="55.5556" r="44.4444" fill="#0A7EF2" fill-opacity="0.8"/>
<circle cx="50" cy="50" r="38.8889" fill="white"/>
<path d="M27.15 56V50.978C27.15 50.222 27.036 49.676 26.808 49.34C26.58 49.004 26.208 48.836 25.692 48.836C25.14 48.836 24.732 49.004 24.468 49.34C24.216 49.676 24.09 50.216 24.09 50.96V56H21.75V50.978C21.75 50.222 21.636 49.676 21.408 49.34C21.18 49.004 20.808 48.836 20.292 48.836C19.74 48.836 19.332 49.004 19.068 49.34C18.816 49.676 18.69 50.216 18.69 50.96V56H16.35V46.802H18.69V47.648C19.242 46.94 19.968 46.586 20.868 46.586C21.996 46.586 22.782 47.018 23.226 47.882C23.838 47.018 24.78 46.586 26.052 46.586C28.344 46.586 29.49 47.798 29.49 50.222V56H27.15ZM37.32 56V55.334C36.732 55.922 35.94 56.216 34.944 56.216C33.948 56.216 33.132 55.952 32.496 55.424C31.872 54.896 31.56 54.146 31.56 53.174C31.56 52.178 31.914 51.422 32.622 50.906C33.342 50.39 34.206 50.132 35.214 50.132C36.018 50.132 36.72 50.276 37.32 50.564V50.096C37.32 49.124 36.768 48.638 35.664 48.638C34.656 48.638 33.708 48.944 32.82 49.556L32.1 47.666C33.168 46.946 34.422 46.586 35.862 46.586C36.354 46.586 36.786 46.628 37.158 46.712C37.542 46.796 37.938 46.952 38.346 47.18C38.754 47.408 39.066 47.774 39.282 48.278C39.51 48.77 39.624 49.388 39.624 50.132V56H37.32ZM35.394 54.164C36.126 54.164 36.768 53.912 37.32 53.408V52.418C36.816 52.214 36.246 52.112 35.61 52.112C35.082 52.112 34.656 52.202 34.332 52.382C34.008 52.55 33.846 52.814 33.846 53.174C33.846 53.474 33.978 53.714 34.242 53.894C34.518 54.074 34.902 54.164 35.394 54.164ZM45.4671 59.6L44.1711 57.656C45.4431 57.56 46.3071 57.38 46.7631 57.116C47.2311 56.864 47.4651 56.414 47.4651 55.766V55.514C46.9971 55.982 46.3371 56.216 45.4851 56.216C44.3451 56.216 43.4271 55.802 42.7311 54.974C42.0351 54.134 41.6871 52.94 41.6871 51.392C41.6871 49.928 42.0351 48.764 42.7311 47.9C43.4391 47.024 44.3631 46.586 45.5031 46.586C46.3191 46.586 46.9731 46.82 47.4651 47.288V46.802H49.8051V54.758C49.8051 56.402 49.4991 57.584 48.8871 58.304C48.2871 59.036 47.1471 59.468 45.4671 59.6ZM45.8631 53.966C46.5711 53.966 47.1051 53.72 47.4651 53.228V49.592C47.0451 49.088 46.5111 48.836 45.8631 48.836C45.2751 48.836 44.8191 49.058 44.4951 49.502C44.1831 49.934 44.0271 50.564 44.0271 51.392C44.0271 52.172 44.1831 52.796 44.4951 53.264C44.8071 53.732 45.2631 53.966 45.8631 53.966ZM53.6962 45.722C53.3242 45.722 53.0002 45.59 52.7242 45.326C52.4602 45.05 52.3282 44.726 52.3282 44.354C52.3282 43.982 52.4602 43.664 52.7242 43.4C52.9882 43.136 53.3122 43.004 53.6962 43.004C54.0802 43.004 54.4042 43.136 54.6682 43.4C54.9322 43.652 55.0642 43.97 55.0642 44.354C55.0642 44.738 54.9322 45.062 54.6682 45.326C54.4042 45.59 54.0802 45.722 53.6962 45.722ZM52.5262 56V46.802H54.8662V56H52.5262ZM61.3323 56.216C60.0483 56.216 59.0283 55.79 58.2723 54.938C57.5163 54.086 57.1383 52.91 57.1383 51.41C57.1383 49.922 57.5163 48.746 58.2723 47.882C59.0403 47.018 60.0603 46.586 61.3323 46.586C63.3123 46.586 64.5903 47.486 65.1663 49.286L62.9343 50.024C62.6343 49.232 62.1183 48.836 61.3863 48.836C60.8223 48.836 60.3663 49.07 60.0183 49.538C59.6823 50.006 59.5143 50.63 59.5143 51.41C59.5143 52.19 59.6823 52.814 60.0183 53.282C60.3543 53.738 60.7923 53.966 61.3323 53.966C62.1363 53.966 62.6763 53.522 62.9523 52.634L65.1843 53.3C64.6203 55.244 63.3363 56.216 61.3323 56.216ZM67.522 56V44.102L69.862 43.004V56H67.522ZM73.8047 59.492L75.2087 55.874L71.7527 46.802H74.1467L76.1627 52.112C76.2707 52.376 76.3607 52.658 76.4327 52.958C76.4567 52.862 76.5467 52.58 76.7027 52.112L78.7187 46.802H81.1127L76.2347 59.492H73.8047Z" fill="#002642"/>
</g>
<defs>
<clipPath id="clip0">
<rect width="100" height="100" fill="white"/>
</clipPath>
</defs>
</svg>
