<svg width="100" height="100" viewBox="0 0 100 100" fill="none" xmlns="http://www.w3.org/2000/svg">
<g clip-path="url(#clip0)">
<circle cx="44.4444" cy="44.4444" r="44.4444" fill="#840032" fill-opacity="0.8"/>
<circle cx="55.5556" cy="44.4444" r="44.4444" fill="#E59500" fill-opacity="0.8"/>
<circle cx="55.5556" cy="55.5556" r="44.4444" fill="#002642" fill-opacity="0.8"/>
<circle cx="44.4444" cy="55.5556" r="44.4444" fill="#0A7EF2" fill-opacity="0.8"/>
<circle cx="50" cy="50" r="38.8889" fill="white"/>
<path d="M69.74 69H61.64V47.4C61.64 46.48 61.68 45.38 61.76 44.1C61.28 45.5 60.86 46.6 60.5 47.4L50.3 69.72L40.04 47.4C39.68 46.6 39.26 45.5 38.78 44.1C38.86 45.38 38.9 46.48 38.9 47.4V69H30.8V27H39.02L49.34 50.16C49.66 50.92 50.02 51.88 50.42 53.04C50.82 51.88 51.18 50.92 51.5 50.16L62 27H69.74V69Z" fill="#002642"/>
</g>
<defs>
<clipPath id="clip0">
<rect width="100" height="100" fill="white"/>
</clipPath>
</defs>
</svg>
